<?xml version="1.0" encoding="utf-8"?>
<!-- Generator: Adobe Illustrator 27.1.1, SVG Export Plug-In . SVG Version: 6.00 Build 0)  -->
<svg version="1.0" id="Layer_1" xmlns="http://www.w3.org/2000/svg" xmlns:xlink="http://www.w3.org/1999/xlink" x="0px" y="0px"
	 viewBox="0 0 110 110" style="enable-background:new 0 0 110 110;" xml:space="preserve">
<rect x="15" y="30" width="5" height="25"/>
<rect x="20" y="30" width="10" height="5"/>
<rect x="30" y="15" width="5" height="20"/>
<rect x="35" y="15" width="45" height="5"/>
<rect x="5" y="25" width="5" height="30"/>
<rect x="5" y="20" width="20" height="5"/>
<rect x="20" y="5" width="5" height="20"/>
<rect x="25" y="5" width="65" height="5"/>
<rect x="5" y="5" width="10" height="10"/>
<rect x="90" y="30.08" transform="matrix(-1 2.387806e-08 -2.387806e-08 -1 185.0038 85.0825)" width="5" height="24.92"/>
<rect x="80" y="30.08" transform="matrix(-1 6.707969e-08 -6.707969e-08 -1 170.0038 65.1649)" width="10" height="5"/>
<rect x="75" y="20" transform="matrix(-1 5.058646e-08 -5.058646e-08 -1 155.0038 55.0825)" width="5" height="15.08"/>
<rect x="100" y="25.08" transform="matrix(-1 2.675806e-08 -2.675806e-08 -1 205.0038 80.0825)" width="5" height="29.92"/>
<rect x="85" y="20.08" transform="matrix(-1 6.707965e-08 -6.707965e-08 -1 190.0037 45.1649)" width="20" height="5"/>
<rect x="85" y="10" transform="matrix(-1 5.058628e-08 -5.058628e-08 -1 175.0037 35.0825)" width="5" height="15.08"/>
<rect x="95" y="5.08" transform="matrix(-1 6.707969e-08 -6.707969e-08 -1 200.0037 20.1649)" width="10" height="10"/>
<rect x="5" y="55" width="5" height="50"/>
<rect x="100" y="55" width="5" height="50"/>
<rect x="10" y="100" width="45" height="5"/>
<rect x="55" y="100" width="50" height="5"/>
<rect x="15" y="55" width="5" height="40"/>
<rect x="90" y="55" width="5" height="40"/>
<rect x="10" y="90" width="5" height="5"/>
<rect x="95" y="90" width="5" height="5"/>
</svg>
