<?xml version="1.0" encoding="utf-8"?>
<!-- Generator: Adobe Illustrator 27.1.1, SVG Export Plug-In . SVG Version: 6.00 Build 0)  -->
<svg version="1.0" id="Layer_1" xmlns="http://www.w3.org/2000/svg" xmlns:xlink="http://www.w3.org/1999/xlink" x="0px" y="0px"
	 viewBox="0 0 300 20" style="enable-background:new 0 0 300 20;" xml:space="preserve">
<style type="text/css">
	.st0{fill:#FFFFFF;stroke:#000000;stroke-width:2;stroke-miterlimit:10;}
	.st1{fill:none;stroke:#000000;stroke-width:2;stroke-miterlimit:10;}
</style>
<circle class="st0" cx="10.15" cy="10" r="8.67"/>
<circle class="st0" cx="289.77" cy="10" r="8.67"/>
<circle class="st0" cx="149.96" cy="10" r="8.67"/>
<path class="st0" d="M21.95,18.67"/>
<path class="st1" d="M18.98,18.67c4.25-3.31,4.34-8.03,4.34-8.62c0-5.15-4.17-8.49-4.49-8.73h122.46c-0.32,0.24-4.49,3.58-4.49,8.73
	c0,0.59,0.09,5.3,4.34,8.62H18.98z"/>
<line class="st1" x1="23.32" y1="10.06" x2="136.8" y2="10.06"/>
<path class="st1" d="M158.79,18.67c4.25-3.31,4.34-8.03,4.34-8.62c0-5.15-4.17-8.49-4.49-8.73H281.1c-0.32,0.24-4.49,3.58-4.49,8.73
	c0,0.59,0.09,5.3,4.34,8.62H158.79z"/>
<line class="st1" x1="163.13" y1="10" x2="276.61" y2="10"/>
</svg>
